<svg width="48" height="48" viewBox="0 0 48 48" fill="none" xmlns="http://www.w3.org/2000/svg">
<g clip-path="url(#clip0_8_2)">
<rect width="48" height="48" fill="white"/>
<rect width="48" height="48" fill="black"/>
<path d="M8.72 26.8V23.6H12.32C12.8533 23.6 13.12 23.3333 13.12 22.8V19.8C13.12 19.2667 12.8533 19 12.32 19H8.72V15.8H13.2C15.84 15.8 17.16 16.9867 17.16 19.36V23.24C17.16 25.6133 15.84 26.8 13.2 26.8H8.72ZM7.92 15.8V31.84H3.88V15.8H7.92ZM22.7638 15.8V31.84H18.7238V15.8H22.7638ZM27.9638 31.84V15.8H32.0038V31.84H27.9638ZM27.1838 31.2L23.5638 23.7V16.54L27.1838 24.06V31.2ZM38.7028 31.84V28.44H45.4428V31.84H38.7028ZM37.9028 31.84H33.7628V15.8H37.9028V31.84Z" fill="white"/>
</g>
<defs>
<clipPath id="clip0_8_2">
<rect width="48" height="48" fill="white"/>
</clipPath>
</defs>
</svg>
