<svg width="77" height="25" viewBox="0 0 77 25" fill="none" xmlns="http://www.w3.org/2000/svg">
<g clip-path="url(#clip0_1_2)">
<rect width="77" height="25" fill="white"/>
<rect width="77" height="25" fill="black"/>
<path d="M11.168 10.16V8.88H12.08C13.136 8.88 13.664 9.35467 13.664 10.304V11.192H12.048V10.48C12.048 10.2667 11.9413 10.16 11.728 10.16H11.168ZM10.848 15.376H9.936C8.88 15.376 8.352 14.9013 8.352 13.952V10.304C8.352 9.35467 8.88 8.88 9.936 8.88H10.848V10.16H10.288C10.0747 10.16 9.968 10.2667 9.968 10.48V13.776C9.968 13.9893 10.0747 14.096 10.288 14.096H10.848V15.376ZM11.168 15.376V14.096H11.728C11.9413 14.096 12.048 13.9893 12.048 13.776V13.064H13.664V13.952C13.664 14.9013 13.136 15.376 12.08 15.376H11.168ZM16.8636 11.736V10.456H17.5756C18.6316 10.456 19.1596 10.9307 19.1596 11.88V13.952C19.1596 14.9013 18.6316 15.376 17.5756 15.376H16.8636V14.096H17.2396C17.453 14.096 17.5596 13.9893 17.5596 13.776V12.056C17.5596 11.8427 17.453 11.736 17.2396 11.736H16.8636ZM16.6236 11.736H16.2476C16.0343 11.736 15.9276 11.8427 15.9276 12.056V13.776C15.9276 13.9893 16.0343 14.096 16.2476 14.096H16.6236V15.376H15.9116C14.8556 15.376 14.3276 14.9013 14.3276 13.952V11.88C14.3276 10.9307 14.8556 10.456 15.9116 10.456H16.6236V11.736ZM21.4208 10.496V15.336H19.7808V10.496H21.4208ZM21.4208 8.84V10.016H19.7808V8.84H21.4208ZM23.6073 15.336H22.0073V10.496H23.6073V15.336ZM23.8473 11.736V10.568C23.986 10.52 24.146 10.496 24.3273 10.496H25.2553C26.3113 10.496 26.8393 10.9707 26.8393 11.92V15.336H25.2393V12.056C25.2393 11.8427 25.1326 11.736 24.9193 11.736H23.8473ZM30.5644 15.336H28.9484L27.2604 10.496H28.8764L30.5644 15.336ZM30.1804 13.544L31.2364 10.496H32.8524L31.1644 15.336H30.8044L30.1804 13.544ZM34.8729 13.856C34.8729 14.016 34.9529 14.096 35.1129 14.096H36.3049C36.4649 14.096 36.5449 14.016 36.5449 13.856V13.824H38.1449V14.072C38.1449 14.9147 37.6703 15.336 36.7209 15.336H34.6969C33.7476 15.336 33.2729 14.9147 33.2729 14.072V11.76C33.2729 10.9173 33.7476 10.496 34.6969 10.496H36.6809C37.6303 10.496 38.1049 10.9173 38.1049 11.76V12.48C38.1049 13.1627 37.7769 13.504 37.1209 13.504H35.5929C35.4276 13.5093 35.2676 13.4853 35.1129 13.432V12.424H36.2649C36.4249 12.424 36.5049 12.344 36.5049 12.184V11.976C36.5049 11.816 36.4249 11.736 36.2649 11.736H35.1129C34.9529 11.736 34.8729 11.816 34.8729 11.976V13.856ZM41.7181 11.744H41.2621V10.464H42.1341C43.0834 10.464 43.5581 10.8853 43.5581 11.728V12.088H41.9581V11.984C41.9581 11.824 41.8781 11.744 41.7181 11.744ZM40.5661 14.096H41.0221V15.376H40.1501C39.2007 15.376 38.7261 14.9547 38.7261 14.112V13.752H40.3261V13.856C40.3261 14.016 40.4061 14.096 40.5661 14.096ZM40.3261 11.984V12.112C40.3261 12.272 40.4061 12.352 40.5661 12.352H42.1341C43.0834 12.352 43.5581 12.7733 43.5581 13.616V14.112C43.5581 14.9547 43.0834 15.376 42.1341 15.376H41.2621V14.096H41.7181C41.8781 14.096 41.9581 14.016 41.9581 13.856V13.712C41.9581 13.552 41.8781 13.472 41.7181 13.472H40.1501C39.2007 13.472 38.7261 13.0507 38.7261 12.208V11.728C38.7261 10.8853 39.2007 10.464 40.1501 10.464H41.0221V11.744H40.5661C40.4061 11.744 40.3261 11.824 40.3261 11.984ZM47.3552 11.856H46.4992V13.656C46.4992 13.8693 46.6059 13.976 46.8192 13.976H47.3552V15.336H46.4432C45.3872 15.336 44.8592 14.8613 44.8592 13.912V11.856H44.0592V10.496H44.8592V8.84H46.4992V10.496H47.3552V11.856ZM49.8749 13V11.64H52.5709V13H49.8749ZM49.5549 8.92V15.336H47.8989V8.92H49.5549ZM49.8749 10.28V8.92H52.6509V10.28H49.8749ZM55.598 11.736V10.456H56.31C57.366 10.456 57.894 10.9307 57.894 11.88V13.952C57.894 14.9013 57.366 15.376 56.31 15.376H55.598V14.096H55.974C56.1873 14.096 56.294 13.9893 56.294 13.776V12.056C56.294 11.8427 56.1873 11.736 55.974 11.736H55.598ZM55.358 11.736H54.982C54.7687 11.736 54.662 11.8427 54.662 12.056V13.776C54.662 13.9893 54.7687 14.096 54.982 14.096H55.358V15.376H54.646C53.59 15.376 53.062 14.9013 53.062 13.952V11.88C53.062 10.9307 53.59 10.456 54.646 10.456H55.358V11.736ZM60.1551 8.84V15.336H58.5151V8.84H60.1551ZM62.3817 10.496V15.336H60.7417V10.496H62.3817ZM62.3817 8.84V10.016H60.7417V8.84H62.3817ZM65.5043 11.736V10.456H66.2163C67.2723 10.456 67.8003 10.9307 67.8003 11.88V13.952C67.8003 14.9013 67.2723 15.376 66.2163 15.376H65.5043V14.096H65.8803C66.0936 14.096 66.2003 13.9893 66.2003 13.776V12.056C66.2003 11.8427 66.0936 11.736 65.8803 11.736H65.5043ZM65.2643 11.736H64.8883C64.6749 11.736 64.5683 11.8427 64.5683 12.056V13.776C64.5683 13.9893 64.6749 14.096 64.8883 14.096H65.2643V15.376H64.5523C63.4963 15.376 62.9683 14.9013 62.9683 13.952V11.88C62.9683 10.9307 63.4963 10.456 64.5523 10.456H65.2643V11.736Z" fill="white"/>
</g>
<defs>
<clipPath id="clip0_1_2">
<rect width="77" height="25" fill="white"/>
</clipPath>
</defs>
</svg>
