<svg width="138" height="60" viewBox="0 0 138 60" fill="none" xmlns="http://www.w3.org/2000/svg">
<g clip-path="url(#clip0_1_2)">
<rect width="137.67" height="60" fill="black"/>
<path d="M8.128 26.11V23.23H10.18C12.556 23.23 13.744 24.298 13.744 26.434V28.432H10.108V26.83C10.108 26.35 9.868 26.11 9.388 26.11H8.128ZM7.408 37.846H5.356C2.98 37.846 1.792 36.778 1.792 34.642V26.434C1.792 24.298 2.98 23.23 5.356 23.23H7.408V26.11H6.148C5.668 26.11 5.428 26.35 5.428 26.83V34.246C5.428 34.726 5.668 34.966 6.148 34.966H7.408V37.846ZM8.128 37.846V34.966H9.388C9.868 34.966 10.108 34.726 10.108 34.246V32.644H13.744V34.642C13.744 36.778 12.556 37.846 10.18 37.846H8.128ZM20.9432 29.656V26.776H22.5452C24.9212 26.776 26.1092 27.844 26.1092 29.98V34.642C26.1092 36.778 24.9212 37.846 22.5452 37.846H20.9432V34.966H21.7892C22.2692 34.966 22.5092 34.726 22.5092 34.246V30.376C22.5092 29.896 22.2692 29.656 21.7892 29.656H20.9432ZM20.4032 29.656H19.5572C19.0772 29.656 18.8372 29.896 18.8372 30.376V34.246C18.8372 34.726 19.0772 34.966 19.5572 34.966H20.4032V37.846H18.8012C16.4252 37.846 15.2372 36.778 15.2372 34.642V29.98C15.2372 27.844 16.4252 26.776 18.8012 26.776H20.4032V29.656ZM31.1967 26.866V37.756H27.5067V26.866H31.1967ZM31.1967 23.14V25.786H27.5067V23.14H31.1967ZM36.1165 37.756H32.5165V26.866H36.1165V37.756ZM36.6565 29.656V27.028C36.9685 26.92 37.3285 26.866 37.7365 26.866H39.8245C42.2005 26.866 43.3885 27.934 43.3885 30.07V37.756H39.7885V30.376C39.7885 29.896 39.5485 29.656 39.0685 29.656H36.6565ZM51.77 37.756H48.134L44.336 26.866H47.972L51.77 37.756ZM50.906 33.724L53.282 26.866H56.918L53.12 37.756H52.31L50.906 33.724ZM61.4641 34.426C61.4641 34.786 61.6441 34.966 62.0041 34.966H64.6861C65.0461 34.966 65.2261 34.786 65.2261 34.426V34.354H68.8261V34.912C68.8261 36.808 67.7581 37.756 65.6221 37.756H61.0681C58.9321 37.756 57.8641 36.808 57.8641 34.912V29.71C57.8641 27.814 58.9321 26.866 61.0681 26.866H65.5321C67.6681 26.866 68.7361 27.814 68.7361 29.71V31.33C68.7361 32.866 67.9981 33.634 66.5221 33.634H63.0841C62.7121 33.646 62.3521 33.592 62.0041 33.472V31.204H64.5961C64.9561 31.204 65.1361 31.024 65.1361 30.664V30.196C65.1361 29.836 64.9561 29.656 64.5961 29.656H62.0041C61.6441 29.656 61.4641 29.836 61.4641 30.196V34.426ZM76.8656 29.674H75.8396V26.794H77.8016C79.9376 26.794 81.0056 27.742 81.0056 29.638V30.448H77.4056V30.214C77.4056 29.854 77.2256 29.674 76.8656 29.674ZM74.2736 34.966H75.2996V37.846H73.3376C71.2016 37.846 70.1336 36.898 70.1336 35.002V34.192H73.7336V34.426C73.7336 34.786 73.9136 34.966 74.2736 34.966ZM73.7336 30.214V30.502C73.7336 30.862 73.9136 31.042 74.2736 31.042H77.8016C79.9376 31.042 81.0056 31.99 81.0056 33.886V35.002C81.0056 36.898 79.9376 37.846 77.8016 37.846H75.8396V34.966H76.8656C77.2256 34.966 77.4056 34.786 77.4056 34.426V34.102C77.4056 33.742 77.2256 33.562 76.8656 33.562H73.3376C71.2016 33.562 70.1336 32.614 70.1336 30.718V29.638C70.1336 27.742 71.2016 26.794 73.3376 26.794H75.2996V29.674H74.2736C73.9136 29.674 73.7336 29.854 73.7336 30.214ZM89.5492 29.926H87.6232V33.976C87.6232 34.456 87.8632 34.696 88.3432 34.696H89.5492V37.756H87.4972C85.1212 37.756 83.9332 36.688 83.9332 34.552V29.926H82.1332V26.866H83.9332V23.14H87.6232V26.866H89.5492V29.926ZM95.2185 32.5V29.44H101.284V32.5H95.2185ZM94.4985 23.32V37.756H90.7725V23.32H94.4985ZM95.2185 26.38V23.32H101.464V26.38H95.2185ZM108.096 29.656V26.776H109.698C112.074 26.776 113.262 27.844 113.262 29.98V34.642C113.262 36.778 112.074 37.846 109.698 37.846H108.096V34.966H108.942C109.422 34.966 109.662 34.726 109.662 34.246V30.376C109.662 29.896 109.422 29.656 108.942 29.656H108.096ZM107.556 29.656H106.71C106.23 29.656 105.99 29.896 105.99 30.376V34.246C105.99 34.726 106.23 34.966 106.71 34.966H107.556V37.846H105.954C103.578 37.846 102.39 36.778 102.39 34.642V29.98C102.39 27.844 103.578 26.776 105.954 26.776H107.556V29.656ZM118.349 23.14V37.756H114.659V23.14H118.349ZM123.359 26.866V37.756H119.669V26.866H123.359ZM123.359 23.14V25.786H119.669V23.14H123.359ZM130.385 29.656V26.776H131.987C134.363 26.776 135.551 27.844 135.551 29.98V34.642C135.551 36.778 134.363 37.846 131.987 37.846H130.385V34.966H131.231C131.711 34.966 131.951 34.726 131.951 34.246V30.376C131.951 29.896 131.711 29.656 131.231 29.656H130.385ZM129.845 29.656H128.999C128.519 29.656 128.279 29.896 128.279 30.376V34.246C128.279 34.726 128.519 34.966 128.999 34.966H129.845V37.846H128.243C125.867 37.846 124.679 36.778 124.679 34.642V29.98C124.679 27.844 125.867 26.776 128.243 26.776H129.845V29.656Z" fill="white"/>
</g>
<defs>
<clipPath id="clip0_1_2">
<rect width="137.67" height="60" fill="white"/>
</clipPath>
</defs>
</svg>
